<svg version="1.2" xmlns="http://www.w3.org/2000/svg" viewBox="0 0 202 57" width="202" height="57">
	<title>CodeLabBranco</title>
	<style>
		.s0 { fill: #ffffff } 
		.s1 { fill: #ff029e } 
		.s2 { fill: #ff87d0 } 
		.s3 { fill: #ff44b7 } 
	</style>
	<g id="g5220-5-7-2">
		<path id="path5109-4-5-8" class="s0" d="m134.9 39.4h15.6v-2.2h-13.1v-21.4h-2.5z"/>
		<path id="path5113-0-4-4" class="s0" d="m182.5 21.6c-2.8 0-5.2 1.2-6.7 3.5v-10.6h-2.4v24.9h2.3v-3.5c1.4 2.4 3.9 3.7 6.8 3.7 5 0 8.8-3.7 8.8-9 0-5.3-3.7-9-8.8-9zm-0.1 15.8c-3.8 0-6.6-2.8-6.6-6.9 0-4.1 2.8-6.9 6.6-6.9 3.7 0 6.6 2.8 6.6 6.9 0 4.1-2.9 6.9-6.6 6.9z"/>
		<g id="g5166-5-8-7">
			<path id="path5115-9-1-2" class="s0" d="m161.6 39.5c5.2 0 9-3.8 9-9 0-5.2-3.8-9-9-9-5.2 0-9 3.7-9 9 0 5.3 3.8 9 9 9zm0-2.1c-3.8 0-6.6-2.8-6.6-6.9 0-4.1 2.8-6.9 6.6-6.9 3.8 0 6.5 2.8 6.5 6.9 0 4.1-2.8 6.9-6.5 6.9z"/>
			<path id="path5117-4-2-4" class="s0" d="m168.4 39.4h2.4v-17.7h-2.4z"/>
		</g>
	</g>
	<g id="g5124-9-6-8-0">
		<path id="path5073-7-9-9-6" class="s1" d="m61 39.7c3.7 0 6.8-1.3 9-3.7l-2.2-2.1c-1.8 1.9-4 2.8-6.6 2.8-5.3 0-9.2-3.8-9.2-9 0-5.2 3.9-9 9.2-9 2.6 0 4.8 0.9 6.6 2.8l2.2-2.1c-2.1-2.4-5.3-3.7-8.9-3.7-7.2 0-12.5 5.1-12.5 12 0 6.9 5.3 12 12.4 12z"/>
		<path id="path5075-7-2-3-2" class="s1" d="m80.5 39.6c5.3 0 9.2-3.8 9.2-9.1 0-5.3-3.9-9.1-9.2-9.1-5.3 0-9.3 3.8-9.3 9.1 0 5.3 4 9.1 9.3 9.1zm0-2.9c-3.4 0-6-2.5-6-6.3 0-3.8 2.6-6.2 6-6.2 3.4 0 6 2.5 6 6.2 0 3.8-2.6 6.3-6 6.3z"/>
		<path id="path5077-6-2-6-9" class="s1" d="m106.5 14.4v9.8c-1.5-1.9-3.7-2.9-6.2-2.9-5.2 0-9 3.6-9 9.1 0 5.4 3.8 9.1 9 9.1 2.6 0 4.9-1 6.3-3v2.8h3.1v-24.9zm-5.9 22.2c-3.4 0-6-2.5-6-6.3 0-3.8 2.6-6.2 6-6.2 3.4 0 6 2.5 6 6.2 0 3.9-2.6 6.3-6 6.3z"/>
		<path id="path5079-4-4-8-9" class="s1" d="m130 30.6c0-5.5-3.7-9.2-8.8-9.2-5.1 0-8.9 3.8-8.9 9.1 0 5.3 3.8 9.1 9.6 9.1 3 0 5.4-1 7-2.9l-1.8-2.1c-1.3 1.4-3.1 2.1-5.1 2.1-3.5 0-6-2.1-6.4-5.2h14.4c0-0.3 0-0.7 0-0.9zm-8.8-6.5c3.1 0 5.4 2.1 5.7 5.1h-11.4c0.3-3 2.6-5.1 5.7-5.1z"/>
	</g>
	<path id="path858-2-8" class="s2" d="m33.5 27.3c0-3-3-4.5-10.7 0-7.7 4.5 2.4 5.7 5.1 5.8 2.5 0.1 5.6-2.7 5.6-5.8z"/>
	<path id="path856-1-1" class="s1" d="m17.1 27.3v15.1c0 8.8 16.3 9 16.3 0v-15.1c-3.5 2.7-8.2 2.6-10.7 0-2.5-2.6-5.6-5.6-5.6 0z"/>
	<g id="g889-05-3">
		<path id="path862-1-1" fill-rule="evenodd" class="s3" d="m21.7 22.9c-1.3 0-2.4-1-2.4-2.2 0-1.3 1.1-2.2 2.4-2.2 1.3 0 2.4 0.9 2.4 2.2 0 1.2-1.1 2.2-2.4 2.2z"/>
	</g>
	<g id="g889-5-1-1">
		<path id="path862-6-0-0" fill-rule="evenodd" class="s2" d="m29.6 17.4c-1.2 0-2.1-0.8-2.1-1.9 0-1 0.9-1.8 2.1-1.8 1.1 0 2 0.8 2 1.8 0 1.1-0.9 1.9-2 1.9z"/>
	</g>
	<g id="g889-0-8-3">
		<path id="path862-9-5-4" fill-rule="evenodd" class="s2" d="m23.9 12.7c-0.8 0-1.5-0.7-1.5-1.6 0-0.9 0.7-1.6 1.5-1.6 0.9 0 1.6 0.7 1.6 1.6 0 0.9-0.7 1.6-1.6 1.6z"/>
	</g>
	<g id="text850-46-9">
		<path id="path852-2-1" class="s0" d="m12.8 12.7v10.3c-0.6 3.4-2 3.5-4 5 2.2 0.6 4 2.9 4 6.3v10.3c0.6 5 6.6 7.4 9.6 5.3-2.8 0-6.3-2.9-6.3-6.7v-10.3c0-2.5-1-4-2.5-4.8 1.5-0.7 2.5-2.2 2.5-4.8v-9.2c0-2.4 1-6.3 4.5-7.9-3.5 0-7.8 2.6-7.8 6.5z"/>
	</g>
	<g id="text850-4-5-9">
		<path id="path852-0-8-6" class="s0" d="m37.1 43.5v-11.4c0.6-3.4 2-3.5 4-5-2.2-0.6-4-2.9-4-6.3v-8.1c0-3.4-3.7-6.1-7.4-6.1 2.8 1.4 4.7 2.9 4.7 6.7v8.9c0 2.5 1 4 2.5 4.8-1.5 0.7-2.5 2.2-2.5 4.8v10.8c0 3.6-1.9 6.5-5.3 6.9 4.7 1 8-2.4 8-6z"/>
	</g>
</svg>