<svg width="396" height="541" viewBox="0 0 396 541" fill="none" xmlns="http://www.w3.org/2000/svg">
<path d="M300.843 256.708C300.843 220.066 264.187 202.381 170.088 256.708C75.9896 311.036 199.693 325.987 231.671 326.913C263.648 327.84 300.843 293.351 300.843 256.708Z" fill="#FF81CF"/>
<path d="M101.807 256.709V441.002C101.807 548.428 300.843 550.066 300.843 441.002V256.709C258.529 289.576 200.916 288.332 170.61 256.709C140.304 225.085 101.807 187.367 101.807 256.709Z" fill="#FF029E"/>
<path d="M157.246 202.282C173.052 202.282 185.865 190.163 185.865 175.214C185.865 160.265 173.052 148.146 157.246 148.146C141.44 148.146 128.626 160.265 128.626 175.214C128.626 190.163 141.44 202.282 157.246 202.282Z" fill="#FF42B7"/>
<path d="M253.044 135.763C266.755 135.763 277.871 125.342 277.871 112.488C277.871 99.633 266.755 89.2123 253.044 89.2123C239.332 89.2123 228.217 99.633 228.217 112.488C228.217 125.342 239.332 135.763 253.044 135.763Z" fill="#FF81CF"/>
<path d="M184.973 78.4053C195.257 78.4053 203.593 69.7909 203.593 59.1644C203.593 48.5379 195.257 39.9234 184.973 39.9234C174.689 39.9234 166.353 48.5379 166.353 59.1644C166.353 69.7909 174.689 78.4053 184.973 78.4053Z" fill="#FF81CF"/>
<path d="M48.9143 79.0648V204.194C41.9678 245.552 25.0831 246.654 0 265.51C27.3067 272.386 48.9143 300.316 48.9143 341.837V466.967C56.5268 527.474 128.798 556.627 165.223 531.792C131.665 531.792 88.7283 496.542 88.7283 449.903V325.03C88.7283 294.317 76.7841 276.116 58.0146 266.447C76.7841 257.346 88.7283 239.146 88.7283 207.863V96.128C88.7283 66.674 100.346 19.7383 144.001 0.00547489C101.808 -0.477411 49.6481 31.0216 48.9143 79.0648Z" fill="white"/>
<path d="M346.136 453.319V315.051C353.082 273.693 369.967 272.591 395.05 253.736C367.743 246.86 346.136 218.929 346.136 177.409V78.5544C346.524 37.4162 300.844 3.83406 256.103 3.87571C290.809 20.5962 312.891 39.1253 312.891 85.7643V194.215C312.891 224.929 324.835 243.13 343.604 252.799C324.835 261.899 312.891 280.1 312.891 311.382V442.824C312.891 486.777 289.356 521.379 248.705 527.196C305.859 539.502 345.643 497.742 346.136 453.319Z" fill="white"/>
</svg>
