<svg version="1.2" xmlns="http://www.w3.org/2000/svg" viewBox="0 0 81 81" width="82" height="82">
	<title>telegram</title>
	<style>
		.s0 { fill: #e951b9 } 
	</style>
	<path class="s0" d="m67.9 10.8c-0.9 0-1.7 0.3-2.4 0.5-0.7 0.3-3.2 1.4-7.3 3.2-4.1 1.7-9.4 4-15.2 6.5-11.5 4.9-24.4 10.5-31 13.3-0.2 0.1-1.1 0.4-2 1.1-0.9 0.7-1.9 2.2-1.9 3.9 0 1.3 0.6 2.6 1.4 3.4 0.8 0.8 1.7 1.2 2.4 1.5 2.7 1.1 10.8 4.4 12.4 5.1 0.5 1.6 3.5 10.7 4.2 12.9 0.4 1.5 0.9 2.4 1.4 3.1q0.4 0.6 1 1 0.3 0.1 0.5 0.2 0.1 0 0.2 0.1c0 0 0.1 0 0.2 0q0.6 0.2 1.2 0.2c1.6 0 2.5-0.8 2.5-0.8l0.1-0.1 8.1-7 9.9 9.3c0.1 0.2 1.4 2 4.3 2 1.7 0 3-0.9 3.9-1.8 0.8-0.9 1.4-1.8 1.6-3 0.2-1.1 9.3-47.8 9.3-47.8v0.1c0.2-1.2 0.3-2.4 0-3.5-0.3-1.1-1.1-2.2-2-2.7-1-0.6-1.9-0.8-2.8-0.7zm-0.5 5.6c0 0.1 0 0 0 0.1v0.1c0 0-9 46-9.3 47.8 0-0.1-0.1 0.1-0.2 0.3-0.2-0.1-0.5-0.3-0.5-0.3h-0.1l-13.4-12.8-9.5 8.3 2.8-11.4c0 0 17.7-18.3 18.8-19.4 0.8-0.8 1-1.1 1-1.4 0-0.4-0.2-0.7-0.7-0.7-0.4 0-0.9 0.4-1.2 0.6-3.9 2.5-20.9 12.4-28.5 16.8-1.2-0.5-9.6-3.9-12.5-5.1 0.1 0 0 0 0.1 0 6.6-2.9 19.5-8.4 30.9-13.4 5.8-2.4 11.2-4.7 15.2-6.5 4-1.7 6.8-2.9 7.1-3z"/>
</svg>